<mxfile host="app.diagrams.net" agent="Mozilla/5.0 (Windows NT 10.0; Win64; x64) AppleWebKit/537.36 (KHTML, like Gecko) Chrome/130.0.0.0 Safari/537.36" version="24.8.4">
  <diagram name="Страница — 1" id="g-SW6uyTi0TM8a5WWiXw">
    <mxGraphModel dx="782" dy="659" grid="1" gridSize="10" guides="1" tooltips="1" connect="1" arrows="1" fold="1" page="1" pageScale="1" pageWidth="827" pageHeight="1169" math="0" shadow="0">
      <root>
        <mxCell id="0" />
        <mxCell id="1" parent="0" />
        <mxCell id="_NZbX6h3056O_9jkRiGZ-13" style="edgeStyle=orthogonalEdgeStyle;rounded=0;orthogonalLoop=1;jettySize=auto;html=1;exitX=0.5;exitY=1;exitDx=0;exitDy=0;entryX=0.5;entryY=0;entryDx=0;entryDy=0;endArrow=none;endFill=0;" parent="1" source="_NZbX6h3056O_9jkRiGZ-2" target="_NZbX6h3056O_9jkRiGZ-3" edge="1">
          <mxGeometry relative="1" as="geometry" />
        </mxCell>
        <mxCell id="_NZbX6h3056O_9jkRiGZ-2" value="&lt;font face=&quot;Lucida Console&quot; style=&quot;font-size: 14px;&quot;&gt;Начало&lt;br style=&quot;font-size: 14px;&quot;&gt;int array_read(int **arr, int size)&lt;/font&gt;" style="rounded=1;whiteSpace=wrap;html=1;arcSize=50;fontSize=14;" parent="1" vertex="1">
          <mxGeometry x="40" y="40" width="160" height="80" as="geometry" />
        </mxCell>
        <mxCell id="_NZbX6h3056O_9jkRiGZ-14" style="edgeStyle=orthogonalEdgeStyle;rounded=0;orthogonalLoop=1;jettySize=auto;html=1;exitX=0.5;exitY=1;exitDx=0;exitDy=0;entryX=0.5;entryY=0;entryDx=0;entryDy=0;endArrow=none;endFill=0;" parent="1" source="_NZbX6h3056O_9jkRiGZ-3" target="_NZbX6h3056O_9jkRiGZ-5" edge="1">
          <mxGeometry relative="1" as="geometry" />
        </mxCell>
        <mxCell id="_NZbX6h3056O_9jkRiGZ-23" style="edgeStyle=orthogonalEdgeStyle;rounded=0;orthogonalLoop=1;jettySize=auto;html=1;exitX=1;exitY=0.5;exitDx=0;exitDy=0;entryX=0;entryY=0.5;entryDx=0;entryDy=0;endArrow=none;endFill=0;" parent="1" source="_NZbX6h3056O_9jkRiGZ-3" target="_NZbX6h3056O_9jkRiGZ-4" edge="1">
          <mxGeometry relative="1" as="geometry" />
        </mxCell>
        <mxCell id="_NZbX6h3056O_9jkRiGZ-3" value="&lt;font style=&quot;font-size: 11px;&quot; face=&quot;Lucida Console&quot;&gt;*arr == NULL ||&lt;br style=&quot;&quot;&gt;&amp;nbsp;size &amp;lt; 0&lt;/font&gt;" style="rhombus;whiteSpace=wrap;html=1;fontSize=12;" parent="1" vertex="1">
          <mxGeometry x="40" y="150" width="160" height="80" as="geometry" />
        </mxCell>
        <mxCell id="_NZbX6h3056O_9jkRiGZ-4" value="&lt;font style=&quot;font-size: 18px;&quot; face=&quot;Lucida Console&quot;&gt;return -1;&lt;/font&gt;" style="rounded=1;whiteSpace=wrap;html=1;arcSize=50;" parent="1" vertex="1">
          <mxGeometry x="240" y="150" width="160" height="80" as="geometry" />
        </mxCell>
        <mxCell id="_NZbX6h3056O_9jkRiGZ-15" style="edgeStyle=orthogonalEdgeStyle;rounded=0;orthogonalLoop=1;jettySize=auto;html=1;exitX=0.5;exitY=1;exitDx=0;exitDy=0;entryX=0.5;entryY=0;entryDx=0;entryDy=0;endArrow=none;endFill=0;" parent="1" source="_NZbX6h3056O_9jkRiGZ-5" target="_NZbX6h3056O_9jkRiGZ-6" edge="1">
          <mxGeometry relative="1" as="geometry" />
        </mxCell>
        <mxCell id="_NZbX6h3056O_9jkRiGZ-5" value="&lt;font style=&quot;font-size: 18px;&quot; face=&quot;Lucida Console&quot;&gt;int res;&lt;/font&gt;" style="rounded=0;whiteSpace=wrap;html=1;" parent="1" vertex="1">
          <mxGeometry x="40" y="260" width="160" height="80" as="geometry" />
        </mxCell>
        <mxCell id="_NZbX6h3056O_9jkRiGZ-16" style="edgeStyle=orthogonalEdgeStyle;rounded=0;orthogonalLoop=1;jettySize=auto;html=1;exitX=0.5;exitY=1;exitDx=0;exitDy=0;entryX=0.5;entryY=0;entryDx=0;entryDy=0;endArrow=none;endFill=0;" parent="1" source="_NZbX6h3056O_9jkRiGZ-6" target="_NZbX6h3056O_9jkRiGZ-7" edge="1">
          <mxGeometry relative="1" as="geometry" />
        </mxCell>
        <mxCell id="_NZbX6h3056O_9jkRiGZ-22" style="edgeStyle=orthogonalEdgeStyle;rounded=0;orthogonalLoop=1;jettySize=auto;html=1;exitX=1;exitY=0.5;exitDx=0;exitDy=0;entryX=0;entryY=0.5;entryDx=0;entryDy=0;endArrow=none;endFill=0;" parent="1" source="_NZbX6h3056O_9jkRiGZ-6" target="_NZbX6h3056O_9jkRiGZ-12" edge="1">
          <mxGeometry relative="1" as="geometry" />
        </mxCell>
        <mxCell id="_NZbX6h3056O_9jkRiGZ-6" value="&lt;font style=&quot;font-size: 17px;&quot;&gt;int i = 0; &lt;br&gt;i &amp;lt; size; i++&lt;/font&gt;" style="shape=hexagon;perimeter=hexagonPerimeter2;whiteSpace=wrap;html=1;fixedSize=1;fontFamily=Lucida Console;" parent="1" vertex="1">
          <mxGeometry x="40" y="370" width="160" height="80" as="geometry" />
        </mxCell>
        <mxCell id="_NZbX6h3056O_9jkRiGZ-17" style="edgeStyle=orthogonalEdgeStyle;rounded=0;orthogonalLoop=1;jettySize=auto;html=1;exitX=0.5;exitY=1;exitDx=0;exitDy=0;entryX=0.5;entryY=0;entryDx=0;entryDy=0;endArrow=none;endFill=0;" parent="1" source="_NZbX6h3056O_9jkRiGZ-7" target="_NZbX6h3056O_9jkRiGZ-8" edge="1">
          <mxGeometry relative="1" as="geometry" />
        </mxCell>
        <mxCell id="_NZbX6h3056O_9jkRiGZ-7" value="&lt;font style=&quot;font-size: 13px;&quot;&gt;res = scanf(&quot;%d&quot;, *arr + i);&lt;/font&gt;" style="shape=parallelogram;perimeter=parallelogramPerimeter;whiteSpace=wrap;html=1;fixedSize=1;fontFamily=Lucida Console;" parent="1" vertex="1">
          <mxGeometry x="40" y="480" width="160" height="80" as="geometry" />
        </mxCell>
        <mxCell id="_NZbX6h3056O_9jkRiGZ-18" style="edgeStyle=orthogonalEdgeStyle;rounded=0;orthogonalLoop=1;jettySize=auto;html=1;exitX=0.5;exitY=1;exitDx=0;exitDy=0;entryX=0.5;entryY=0;entryDx=0;entryDy=0;endArrow=none;endFill=0;" parent="1" source="_NZbX6h3056O_9jkRiGZ-8" target="_NZbX6h3056O_9jkRiGZ-10" edge="1">
          <mxGeometry relative="1" as="geometry" />
        </mxCell>
        <mxCell id="_NZbX6h3056O_9jkRiGZ-20" style="edgeStyle=orthogonalEdgeStyle;rounded=0;orthogonalLoop=1;jettySize=auto;html=1;exitX=1;exitY=0.5;exitDx=0;exitDy=0;entryX=0;entryY=0.5;entryDx=0;entryDy=0;endArrow=none;endFill=0;" parent="1" source="_NZbX6h3056O_9jkRiGZ-8" target="_NZbX6h3056O_9jkRiGZ-9" edge="1">
          <mxGeometry relative="1" as="geometry" />
        </mxCell>
        <mxCell id="_NZbX6h3056O_9jkRiGZ-8" value="&lt;font style=&quot;font-size: 18px;&quot; face=&quot;Lucida Console&quot;&gt;res != 1&lt;/font&gt;" style="rhombus;whiteSpace=wrap;html=1;" parent="1" vertex="1">
          <mxGeometry x="40" y="590" width="160" height="80" as="geometry" />
        </mxCell>
        <mxCell id="_NZbX6h3056O_9jkRiGZ-9" value="&lt;font style=&quot;font-size: 18px;&quot; face=&quot;Lucida Console&quot;&gt;return -1;&lt;/font&gt;" style="rounded=1;whiteSpace=wrap;html=1;arcSize=50;" parent="1" vertex="1">
          <mxGeometry x="240" y="590" width="160" height="80" as="geometry" />
        </mxCell>
        <mxCell id="_NZbX6h3056O_9jkRiGZ-19" style="edgeStyle=orthogonalEdgeStyle;rounded=0;orthogonalLoop=1;jettySize=auto;html=1;exitX=0.5;exitY=1;exitDx=0;exitDy=0;entryX=0;entryY=0.5;entryDx=0;entryDy=0;" parent="1" source="_NZbX6h3056O_9jkRiGZ-10" target="_NZbX6h3056O_9jkRiGZ-6" edge="1">
          <mxGeometry relative="1" as="geometry">
            <Array as="points">
              <mxPoint x="120" y="790" />
              <mxPoint x="30" y="790" />
              <mxPoint x="30" y="410" />
            </Array>
          </mxGeometry>
        </mxCell>
        <mxCell id="_NZbX6h3056O_9jkRiGZ-21" style="edgeStyle=orthogonalEdgeStyle;rounded=0;orthogonalLoop=1;jettySize=auto;html=1;exitX=1;exitY=0.5;exitDx=0;exitDy=0;entryX=0;entryY=0.5;entryDx=0;entryDy=0;endArrow=none;endFill=0;" parent="1" source="_NZbX6h3056O_9jkRiGZ-10" target="_NZbX6h3056O_9jkRiGZ-11" edge="1">
          <mxGeometry relative="1" as="geometry" />
        </mxCell>
        <mxCell id="_NZbX6h3056O_9jkRiGZ-10" value="&lt;font style=&quot;font-size: 18px;&quot; face=&quot;Lucida Console&quot;&gt;res == EOF&lt;/font&gt;" style="rhombus;whiteSpace=wrap;html=1;" parent="1" vertex="1">
          <mxGeometry x="40" y="700" width="160" height="80" as="geometry" />
        </mxCell>
        <mxCell id="_NZbX6h3056O_9jkRiGZ-11" value="&lt;font style=&quot;font-size: 15px;&quot; face=&quot;Lucida Console&quot;&gt;return SCANF_EOF;&lt;/font&gt;" style="rounded=1;whiteSpace=wrap;html=1;arcSize=50;" parent="1" vertex="1">
          <mxGeometry x="240" y="700" width="160" height="80" as="geometry" />
        </mxCell>
        <mxCell id="_NZbX6h3056O_9jkRiGZ-12" value="&lt;font style=&quot;font-size: 18px;&quot; face=&quot;Lucida Console&quot;&gt;return 0;&lt;/font&gt;" style="rounded=1;whiteSpace=wrap;html=1;arcSize=50;" parent="1" vertex="1">
          <mxGeometry x="240" y="370" width="160" height="80" as="geometry" />
        </mxCell>
        <mxCell id="_NZbX6h3056O_9jkRiGZ-24" value="да" style="text;html=1;align=center;verticalAlign=middle;resizable=0;points=[];autosize=1;strokeColor=none;fillColor=none;fontFamily=Lucida Console;" parent="1" vertex="1">
          <mxGeometry x="190" y="168" width="40" height="30" as="geometry" />
        </mxCell>
        <mxCell id="_NZbX6h3056O_9jkRiGZ-25" value="нет" style="text;html=1;align=center;verticalAlign=middle;resizable=0;points=[];autosize=1;strokeColor=none;fillColor=none;fontFamily=Lucida Console;" parent="1" vertex="1">
          <mxGeometry x="110" y="218" width="50" height="30" as="geometry" />
        </mxCell>
        <mxCell id="_NZbX6h3056O_9jkRiGZ-26" value="да" style="text;html=1;align=center;verticalAlign=middle;resizable=0;points=[];autosize=1;strokeColor=none;fillColor=none;fontFamily=Lucida Console;" parent="1" vertex="1">
          <mxGeometry x="190" y="608" width="40" height="30" as="geometry" />
        </mxCell>
        <mxCell id="_NZbX6h3056O_9jkRiGZ-27" value="нет" style="text;html=1;align=center;verticalAlign=middle;resizable=0;points=[];autosize=1;strokeColor=none;fillColor=none;fontFamily=Lucida Console;" parent="1" vertex="1">
          <mxGeometry x="110" y="658" width="50" height="30" as="geometry" />
        </mxCell>
        <mxCell id="_NZbX6h3056O_9jkRiGZ-28" value="да" style="text;html=1;align=center;verticalAlign=middle;resizable=0;points=[];autosize=1;strokeColor=none;fillColor=none;fontFamily=Lucida Console;" parent="1" vertex="1">
          <mxGeometry x="190" y="718" width="40" height="30" as="geometry" />
        </mxCell>
        <mxCell id="_NZbX6h3056O_9jkRiGZ-29" value="нет" style="text;html=1;align=center;verticalAlign=middle;resizable=0;points=[];autosize=1;strokeColor=none;fillColor=none;fontFamily=Lucida Console;" parent="1" vertex="1">
          <mxGeometry x="110" y="768" width="50" height="30" as="geometry" />
        </mxCell>
        <mxCell id="_NZbX6h3056O_9jkRiGZ-48" style="edgeStyle=orthogonalEdgeStyle;rounded=0;orthogonalLoop=1;jettySize=auto;html=1;exitX=0.5;exitY=1;exitDx=0;exitDy=0;entryX=0.5;entryY=0;entryDx=0;entryDy=0;endArrow=none;endFill=0;" parent="1" source="_NZbX6h3056O_9jkRiGZ-30" target="_NZbX6h3056O_9jkRiGZ-32" edge="1">
          <mxGeometry relative="1" as="geometry" />
        </mxCell>
        <mxCell id="_NZbX6h3056O_9jkRiGZ-30" value="&lt;font face=&quot;Lucida Console&quot;&gt;Начало int array_init(int **arr, int *size)&lt;/font&gt;" style="rounded=1;whiteSpace=wrap;html=1;arcSize=50;" parent="1" vertex="1">
          <mxGeometry x="440" y="40" width="160" height="80" as="geometry" />
        </mxCell>
        <mxCell id="_NZbX6h3056O_9jkRiGZ-49" style="edgeStyle=orthogonalEdgeStyle;rounded=0;orthogonalLoop=1;jettySize=auto;html=1;exitX=0.5;exitY=1;exitDx=0;exitDy=0;entryX=0.5;entryY=0;entryDx=0;entryDy=0;endArrow=none;endFill=0;" parent="1" source="_NZbX6h3056O_9jkRiGZ-32" target="_NZbX6h3056O_9jkRiGZ-33" edge="1">
          <mxGeometry relative="1" as="geometry" />
        </mxCell>
        <mxCell id="_NZbX6h3056O_9jkRiGZ-32" value="&lt;font face=&quot;Lucida Console&quot;&gt;int current_res = check_input_int(&lt;br&gt;size, &quot;Введите размер массива:&quot;);&lt;/font&gt;" style="shape=process;whiteSpace=wrap;html=1;backgroundOutline=1;" parent="1" vertex="1">
          <mxGeometry x="440" y="150" width="160" height="80" as="geometry" />
        </mxCell>
        <mxCell id="_NZbX6h3056O_9jkRiGZ-50" style="edgeStyle=orthogonalEdgeStyle;rounded=0;orthogonalLoop=1;jettySize=auto;html=1;exitX=0.5;exitY=1;exitDx=0;exitDy=0;entryX=0.5;entryY=0;entryDx=0;entryDy=0;endArrow=none;endFill=0;" parent="1" source="_NZbX6h3056O_9jkRiGZ-33" target="_NZbX6h3056O_9jkRiGZ-34" edge="1">
          <mxGeometry relative="1" as="geometry" />
        </mxCell>
        <mxCell id="_NZbX6h3056O_9jkRiGZ-33" value="&lt;font style=&quot;font-size: 18px;&quot; face=&quot;Lucida Console&quot;&gt;char eol;&lt;/font&gt;" style="rounded=0;whiteSpace=wrap;html=1;" parent="1" vertex="1">
          <mxGeometry x="440" y="260" width="160" height="80" as="geometry" />
        </mxCell>
        <mxCell id="_NZbX6h3056O_9jkRiGZ-51" style="edgeStyle=orthogonalEdgeStyle;rounded=0;orthogonalLoop=1;jettySize=auto;html=1;exitX=1;exitY=0.5;exitDx=0;exitDy=0;entryX=0;entryY=0.5;entryDx=0;entryDy=0;endArrow=none;endFill=0;" parent="1" source="_NZbX6h3056O_9jkRiGZ-34" target="_NZbX6h3056O_9jkRiGZ-35" edge="1">
          <mxGeometry relative="1" as="geometry" />
        </mxCell>
        <mxCell id="_NZbX6h3056O_9jkRiGZ-52" style="edgeStyle=orthogonalEdgeStyle;rounded=0;orthogonalLoop=1;jettySize=auto;html=1;exitX=0.5;exitY=1;exitDx=0;exitDy=0;entryX=0.5;entryY=0;entryDx=0;entryDy=0;endArrow=none;endFill=0;" parent="1" source="_NZbX6h3056O_9jkRiGZ-34" target="_NZbX6h3056O_9jkRiGZ-36" edge="1">
          <mxGeometry relative="1" as="geometry" />
        </mxCell>
        <mxCell id="_NZbX6h3056O_9jkRiGZ-34" value="&lt;font style=&quot;font-size: 13px;&quot; face=&quot;Lucida Console&quot;&gt;current_res == SCANF_EOF&lt;/font&gt;" style="rhombus;whiteSpace=wrap;html=1;" parent="1" vertex="1">
          <mxGeometry x="440" y="370" width="160" height="80" as="geometry" />
        </mxCell>
        <mxCell id="_NZbX6h3056O_9jkRiGZ-35" value="&lt;font style=&quot;font-size: 15px;&quot; face=&quot;Lucida Console&quot;&gt;return SCANF_EOF;&lt;/font&gt;" style="rounded=1;whiteSpace=wrap;html=1;arcSize=50;" parent="1" vertex="1">
          <mxGeometry x="640" y="370" width="160" height="80" as="geometry" />
        </mxCell>
        <mxCell id="_NZbX6h3056O_9jkRiGZ-53" style="edgeStyle=orthogonalEdgeStyle;rounded=0;orthogonalLoop=1;jettySize=auto;html=1;exitX=1;exitY=0.5;exitDx=0;exitDy=0;entryX=0;entryY=0.5;entryDx=0;entryDy=0;endArrow=none;endFill=0;" parent="1" source="_NZbX6h3056O_9jkRiGZ-36" target="_NZbX6h3056O_9jkRiGZ-37" edge="1">
          <mxGeometry relative="1" as="geometry" />
        </mxCell>
        <mxCell id="_NZbX6h3056O_9jkRiGZ-54" style="edgeStyle=orthogonalEdgeStyle;rounded=0;orthogonalLoop=1;jettySize=auto;html=1;exitX=0.5;exitY=1;exitDx=0;exitDy=0;entryX=0.5;entryY=0;entryDx=0;entryDy=0;endArrow=none;endFill=0;" parent="1" source="_NZbX6h3056O_9jkRiGZ-36" target="_NZbX6h3056O_9jkRiGZ-38" edge="1">
          <mxGeometry relative="1" as="geometry" />
        </mxCell>
        <mxCell id="_NZbX6h3056O_9jkRiGZ-36" value="&lt;font face=&quot;Lucida Console&quot; style=&quot;font-size: 18px;&quot;&gt;*arr == NULL&lt;/font&gt;" style="rhombus;whiteSpace=wrap;html=1;" parent="1" vertex="1">
          <mxGeometry x="440" y="480" width="160" height="80" as="geometry" />
        </mxCell>
        <mxCell id="_NZbX6h3056O_9jkRiGZ-66" style="edgeStyle=orthogonalEdgeStyle;rounded=0;orthogonalLoop=1;jettySize=auto;html=1;exitX=0.5;exitY=1;exitDx=0;exitDy=0;" parent="1" source="_NZbX6h3056O_9jkRiGZ-37" edge="1">
          <mxGeometry relative="1" as="geometry">
            <mxPoint x="520" y="680" as="targetPoint" />
            <Array as="points">
              <mxPoint x="720" y="680" />
            </Array>
          </mxGeometry>
        </mxCell>
        <mxCell id="_NZbX6h3056O_9jkRiGZ-37" value="&lt;font style=&quot;font-size: 17px;&quot; face=&quot;Lucida Console&quot;&gt;*arr = (int *)&lt;br&gt;calloc(*size, sizeof(int));&lt;/font&gt;" style="rounded=0;whiteSpace=wrap;html=1;" parent="1" vertex="1">
          <mxGeometry x="640" y="480" width="160" height="80" as="geometry" />
        </mxCell>
        <mxCell id="_NZbX6h3056O_9jkRiGZ-55" style="edgeStyle=orthogonalEdgeStyle;rounded=0;orthogonalLoop=1;jettySize=auto;html=1;exitX=0.5;exitY=1;exitDx=0;exitDy=0;entryX=0.5;entryY=0;entryDx=0;entryDy=0;endArrow=none;endFill=0;" parent="1" source="_NZbX6h3056O_9jkRiGZ-38" target="_NZbX6h3056O_9jkRiGZ-39" edge="1">
          <mxGeometry relative="1" as="geometry" />
        </mxCell>
        <mxCell id="_NZbX6h3056O_9jkRiGZ-38" value="&lt;font style=&quot;font-size: 15px;&quot; face=&quot;Lucida Console&quot;&gt;*arr = (int *)&lt;br&gt;realloc(*arr, *size * sizeof(int));&lt;/font&gt;" style="rounded=0;whiteSpace=wrap;html=1;" parent="1" vertex="1">
          <mxGeometry x="440" y="590" width="160" height="80" as="geometry" />
        </mxCell>
        <mxCell id="_NZbX6h3056O_9jkRiGZ-56" style="edgeStyle=orthogonalEdgeStyle;rounded=0;orthogonalLoop=1;jettySize=auto;html=1;exitX=0.5;exitY=1;exitDx=0;exitDy=0;entryX=0.5;entryY=0;entryDx=0;entryDy=0;endArrow=none;endFill=0;" parent="1" source="_NZbX6h3056O_9jkRiGZ-39" target="_NZbX6h3056O_9jkRiGZ-40" edge="1">
          <mxGeometry relative="1" as="geometry" />
        </mxCell>
        <mxCell id="_NZbX6h3056O_9jkRiGZ-39" value="&lt;font style=&quot;font-size: 13px;&quot; face=&quot;Lucida Console&quot;&gt;printf(&quot;Введите &lt;br&gt;%d элементов массива:\n&quot;, &lt;br&gt;*size);&lt;/font&gt;" style="shape=parallelogram;perimeter=parallelogramPerimeter;whiteSpace=wrap;html=1;fixedSize=1;" parent="1" vertex="1">
          <mxGeometry x="440" y="700" width="160" height="80" as="geometry" />
        </mxCell>
        <mxCell id="_NZbX6h3056O_9jkRiGZ-57" style="edgeStyle=orthogonalEdgeStyle;rounded=0;orthogonalLoop=1;jettySize=auto;html=1;exitX=0.5;exitY=1;exitDx=0;exitDy=0;entryX=0.5;entryY=0;entryDx=0;entryDy=0;endArrow=none;endFill=0;" parent="1" source="_NZbX6h3056O_9jkRiGZ-40" target="_NZbX6h3056O_9jkRiGZ-42" edge="1">
          <mxGeometry relative="1" as="geometry" />
        </mxCell>
        <mxCell id="_NZbX6h3056O_9jkRiGZ-40" value="&lt;font style=&quot;font-size: 17px;&quot; face=&quot;Lucida Console&quot;&gt;current_res = array_read(arr, *size);&lt;/font&gt;" style="rounded=0;whiteSpace=wrap;html=1;" parent="1" vertex="1">
          <mxGeometry x="440" y="810" width="160" height="80" as="geometry" />
        </mxCell>
        <mxCell id="_NZbX6h3056O_9jkRiGZ-60" style="edgeStyle=orthogonalEdgeStyle;rounded=0;orthogonalLoop=1;jettySize=auto;html=1;exitX=0.5;exitY=1;exitDx=0;exitDy=0;entryX=0.5;entryY=0;entryDx=0;entryDy=0;endArrow=none;endFill=0;" parent="1" source="_NZbX6h3056O_9jkRiGZ-41" target="_NZbX6h3056O_9jkRiGZ-44" edge="1">
          <mxGeometry relative="1" as="geometry" />
        </mxCell>
        <mxCell id="_NZbX6h3056O_9jkRiGZ-41" value="&lt;font style=&quot;font-size: 14px;&quot; face=&quot;Lucida Console&quot;&gt;eol = getchar();&lt;/font&gt;" style="shape=parallelogram;perimeter=parallelogramPerimeter;whiteSpace=wrap;html=1;fixedSize=1;" parent="1" vertex="1">
          <mxGeometry x="440" y="1030" width="160" height="80" as="geometry" />
        </mxCell>
        <mxCell id="_NZbX6h3056O_9jkRiGZ-58" style="edgeStyle=orthogonalEdgeStyle;rounded=0;orthogonalLoop=1;jettySize=auto;html=1;exitX=1;exitY=0.5;exitDx=0;exitDy=0;entryX=0;entryY=0.5;entryDx=0;entryDy=0;endArrow=none;endFill=0;" parent="1" source="_NZbX6h3056O_9jkRiGZ-42" target="_NZbX6h3056O_9jkRiGZ-43" edge="1">
          <mxGeometry relative="1" as="geometry" />
        </mxCell>
        <mxCell id="_NZbX6h3056O_9jkRiGZ-59" style="edgeStyle=orthogonalEdgeStyle;rounded=0;orthogonalLoop=1;jettySize=auto;html=1;exitX=0.5;exitY=1;exitDx=0;exitDy=0;entryX=0.5;entryY=0;entryDx=0;entryDy=0;endArrow=none;endFill=0;" parent="1" source="_NZbX6h3056O_9jkRiGZ-42" target="_NZbX6h3056O_9jkRiGZ-41" edge="1">
          <mxGeometry relative="1" as="geometry" />
        </mxCell>
        <mxCell id="_NZbX6h3056O_9jkRiGZ-42" value="&lt;font style=&quot;font-size: 13px;&quot; face=&quot;Lucida Console&quot;&gt;current_res == SCANF_EOF&lt;/font&gt;" style="rhombus;whiteSpace=wrap;html=1;" parent="1" vertex="1">
          <mxGeometry x="440" y="920" width="160" height="80" as="geometry" />
        </mxCell>
        <mxCell id="_NZbX6h3056O_9jkRiGZ-43" value="&lt;font style=&quot;font-size: 15px;&quot; face=&quot;Lucida Console&quot;&gt;return SCANF_EOF;&lt;/font&gt;" style="rounded=1;whiteSpace=wrap;html=1;arcSize=50;" parent="1" vertex="1">
          <mxGeometry x="640" y="920" width="160" height="80" as="geometry" />
        </mxCell>
        <mxCell id="_NZbX6h3056O_9jkRiGZ-61" style="edgeStyle=orthogonalEdgeStyle;rounded=0;orthogonalLoop=1;jettySize=auto;html=1;exitX=0.5;exitY=1;exitDx=0;exitDy=0;entryX=0.5;entryY=0;entryDx=0;entryDy=0;endArrow=none;endFill=0;" parent="1" source="_NZbX6h3056O_9jkRiGZ-44" target="_NZbX6h3056O_9jkRiGZ-45" edge="1">
          <mxGeometry relative="1" as="geometry" />
        </mxCell>
        <mxCell id="_NZbX6h3056O_9jkRiGZ-63" style="edgeStyle=orthogonalEdgeStyle;rounded=0;orthogonalLoop=1;jettySize=auto;html=1;exitX=1;exitY=0.5;exitDx=0;exitDy=0;entryX=0;entryY=0.5;entryDx=0;entryDy=0;endArrow=none;endFill=0;" parent="1" source="_NZbX6h3056O_9jkRiGZ-44" target="_NZbX6h3056O_9jkRiGZ-47" edge="1">
          <mxGeometry relative="1" as="geometry" />
        </mxCell>
        <mxCell id="_NZbX6h3056O_9jkRiGZ-44" value="&lt;p style=&quot;line-height: 100%;&quot;&gt;&lt;font style=&quot;font-size: 11px;&quot; face=&quot;Lucida Console&quot;&gt;(current_res != 0) &lt;br&gt;|| (eol != &#39;\n&#39;)&lt;/font&gt;&lt;/p&gt;" style="rhombus;whiteSpace=wrap;html=1;" parent="1" vertex="1">
          <mxGeometry x="440" y="1140" width="160" height="80" as="geometry" />
        </mxCell>
        <mxCell id="_NZbX6h3056O_9jkRiGZ-62" style="edgeStyle=orthogonalEdgeStyle;rounded=0;orthogonalLoop=1;jettySize=auto;html=1;exitX=0.5;exitY=1;exitDx=0;exitDy=0;" parent="1" source="_NZbX6h3056O_9jkRiGZ-45" edge="1">
          <mxGeometry relative="1" as="geometry">
            <mxPoint x="520" y="690" as="targetPoint" />
            <Array as="points">
              <mxPoint x="520" y="1350" />
              <mxPoint x="420" y="1350" />
              <mxPoint x="420" y="690" />
            </Array>
          </mxGeometry>
        </mxCell>
        <mxCell id="_NZbX6h3056O_9jkRiGZ-45" value="&lt;font style=&quot;font-size: 17px;&quot; face=&quot;Lucida Console&quot;&gt;printf(&lt;br&gt;&quot;Неправильный ввод\n&quot;);&lt;/font&gt;" style="shape=parallelogram;perimeter=parallelogramPerimeter;whiteSpace=wrap;html=1;fixedSize=1;" parent="1" vertex="1">
          <mxGeometry x="440" y="1250" width="160" height="80" as="geometry" />
        </mxCell>
        <mxCell id="_NZbX6h3056O_9jkRiGZ-47" value="&lt;font style=&quot;font-size: 18px;&quot; face=&quot;Lucida Console&quot;&gt;return 0;&lt;/font&gt;" style="rounded=1;whiteSpace=wrap;html=1;arcSize=50;" parent="1" vertex="1">
          <mxGeometry x="640" y="1140" width="160" height="80" as="geometry" />
        </mxCell>
        <mxCell id="_NZbX6h3056O_9jkRiGZ-64" value="&lt;font face=&quot;Lucida Console&quot;&gt;да&lt;/font&gt;" style="text;html=1;align=center;verticalAlign=middle;resizable=0;points=[];autosize=1;strokeColor=none;fillColor=none;" parent="1" vertex="1">
          <mxGeometry x="590" y="388" width="40" height="30" as="geometry" />
        </mxCell>
        <mxCell id="_NZbX6h3056O_9jkRiGZ-65" value="&lt;font face=&quot;Lucida Console&quot;&gt;да&lt;/font&gt;" style="text;html=1;align=center;verticalAlign=middle;resizable=0;points=[];autosize=1;strokeColor=none;fillColor=none;" parent="1" vertex="1">
          <mxGeometry x="590" y="498" width="40" height="30" as="geometry" />
        </mxCell>
        <mxCell id="_NZbX6h3056O_9jkRiGZ-67" value="&lt;font face=&quot;Lucida Console&quot;&gt;нет&lt;/font&gt;" style="text;html=1;align=center;verticalAlign=middle;resizable=0;points=[];autosize=1;strokeColor=none;fillColor=none;" parent="1" vertex="1">
          <mxGeometry x="510" y="440" width="50" height="30" as="geometry" />
        </mxCell>
        <mxCell id="_NZbX6h3056O_9jkRiGZ-68" value="&lt;font face=&quot;Lucida Console&quot;&gt;нет&lt;/font&gt;" style="text;html=1;align=center;verticalAlign=middle;resizable=0;points=[];autosize=1;strokeColor=none;fillColor=none;" parent="1" vertex="1">
          <mxGeometry x="510" y="550" width="50" height="30" as="geometry" />
        </mxCell>
        <mxCell id="_NZbX6h3056O_9jkRiGZ-69" value="&lt;font face=&quot;Lucida Console&quot;&gt;да&lt;/font&gt;" style="text;html=1;align=center;verticalAlign=middle;resizable=0;points=[];autosize=1;strokeColor=none;fillColor=none;" parent="1" vertex="1">
          <mxGeometry x="590" y="938" width="40" height="30" as="geometry" />
        </mxCell>
        <mxCell id="_NZbX6h3056O_9jkRiGZ-70" value="&lt;font face=&quot;Lucida Console&quot;&gt;нет&lt;/font&gt;" style="text;html=1;align=center;verticalAlign=middle;resizable=0;points=[];autosize=1;strokeColor=none;fillColor=none;" parent="1" vertex="1">
          <mxGeometry x="510" y="988" width="50" height="30" as="geometry" />
        </mxCell>
        <mxCell id="_NZbX6h3056O_9jkRiGZ-71" value="&lt;font face=&quot;Lucida Console&quot;&gt;да&lt;/font&gt;" style="text;html=1;align=center;verticalAlign=middle;resizable=0;points=[];autosize=1;strokeColor=none;fillColor=none;" parent="1" vertex="1">
          <mxGeometry x="510" y="1210" width="40" height="30" as="geometry" />
        </mxCell>
        <mxCell id="_NZbX6h3056O_9jkRiGZ-72" value="&lt;font face=&quot;Lucida Console&quot;&gt;нет&lt;/font&gt;" style="text;html=1;align=center;verticalAlign=middle;resizable=0;points=[];autosize=1;strokeColor=none;fillColor=none;" parent="1" vertex="1">
          <mxGeometry x="585" y="1160" width="50" height="30" as="geometry" />
        </mxCell>
        <mxCell id="GUTHpdWSHkX-vr3ncghE-12" style="edgeStyle=orthogonalEdgeStyle;rounded=0;orthogonalLoop=1;jettySize=auto;html=1;exitX=0.5;exitY=1;exitDx=0;exitDy=0;entryX=0.5;entryY=0;entryDx=0;entryDy=0;endArrow=none;endFill=0;" edge="1" parent="1" source="GUTHpdWSHkX-vr3ncghE-1" target="GUTHpdWSHkX-vr3ncghE-2">
          <mxGeometry relative="1" as="geometry" />
        </mxCell>
        <mxCell id="GUTHpdWSHkX-vr3ncghE-1" value="&lt;font face=&quot;Lucida Console&quot;&gt;Начало&amp;nbsp;int array_insert(int **arr, int *size, int elem, int pos)&lt;/font&gt;" style="rounded=1;whiteSpace=wrap;html=1;arcSize=50;" vertex="1" parent="1">
          <mxGeometry x="840" y="40" width="160" height="80" as="geometry" />
        </mxCell>
        <mxCell id="GUTHpdWSHkX-vr3ncghE-13" style="edgeStyle=orthogonalEdgeStyle;rounded=0;orthogonalLoop=1;jettySize=auto;html=1;exitX=1;exitY=0.5;exitDx=0;exitDy=0;entryX=0;entryY=0.5;entryDx=0;entryDy=0;endArrow=none;endFill=0;" edge="1" parent="1" source="GUTHpdWSHkX-vr3ncghE-2" target="GUTHpdWSHkX-vr3ncghE-3">
          <mxGeometry relative="1" as="geometry" />
        </mxCell>
        <mxCell id="GUTHpdWSHkX-vr3ncghE-2" value="&lt;font style=&quot;font-size: 11px;&quot; face=&quot;Lucida Console&quot;&gt;*arr == NULL ||&lt;br&gt;pos &amp;lt; 0&lt;/font&gt;" style="rhombus;whiteSpace=wrap;html=1;" vertex="1" parent="1">
          <mxGeometry x="840" y="150" width="160" height="80" as="geometry" />
        </mxCell>
        <mxCell id="GUTHpdWSHkX-vr3ncghE-3" value="&lt;font style=&quot;font-size: 18px;&quot; face=&quot;Lucida Console&quot;&gt;return -1;&lt;/font&gt;" style="rounded=1;whiteSpace=wrap;html=1;arcSize=50;" vertex="1" parent="1">
          <mxGeometry x="1040" y="150" width="160" height="80" as="geometry" />
        </mxCell>
        <mxCell id="GUTHpdWSHkX-vr3ncghE-15" style="edgeStyle=orthogonalEdgeStyle;rounded=0;orthogonalLoop=1;jettySize=auto;html=1;exitX=0.5;exitY=1;exitDx=0;exitDy=0;entryX=0.5;entryY=0;entryDx=0;entryDy=0;endArrow=none;endFill=0;" edge="1" parent="1" source="GUTHpdWSHkX-vr3ncghE-4" target="GUTHpdWSHkX-vr3ncghE-5">
          <mxGeometry relative="1" as="geometry" />
        </mxCell>
        <mxCell id="GUTHpdWSHkX-vr3ncghE-4" value="&lt;font style=&quot;font-size: 15px;&quot; face=&quot;Lucida Console&quot;&gt;*arr = (int *)realloc(*arr, (*size + 1) * sizeof(int));&lt;/font&gt;" style="rounded=0;whiteSpace=wrap;html=1;" vertex="1" parent="1">
          <mxGeometry x="840" y="260" width="160" height="80" as="geometry" />
        </mxCell>
        <mxCell id="GUTHpdWSHkX-vr3ncghE-16" style="edgeStyle=orthogonalEdgeStyle;rounded=0;orthogonalLoop=1;jettySize=auto;html=1;exitX=1;exitY=0.5;exitDx=0;exitDy=0;entryX=0;entryY=0.5;entryDx=0;entryDy=0;endArrow=none;endFill=0;" edge="1" parent="1" source="GUTHpdWSHkX-vr3ncghE-5" target="GUTHpdWSHkX-vr3ncghE-6">
          <mxGeometry relative="1" as="geometry" />
        </mxCell>
        <mxCell id="GUTHpdWSHkX-vr3ncghE-17" style="edgeStyle=orthogonalEdgeStyle;rounded=0;orthogonalLoop=1;jettySize=auto;html=1;exitX=0.5;exitY=1;exitDx=0;exitDy=0;entryX=0.5;entryY=0;entryDx=0;entryDy=0;endArrow=none;endFill=0;" edge="1" parent="1" source="GUTHpdWSHkX-vr3ncghE-5" target="GUTHpdWSHkX-vr3ncghE-7">
          <mxGeometry relative="1" as="geometry" />
        </mxCell>
        <mxCell id="GUTHpdWSHkX-vr3ncghE-5" value="&lt;font style=&quot;font-size: 15px;&quot; face=&quot;Lucida Console&quot;&gt;pos &amp;gt; *size&lt;/font&gt;" style="rhombus;whiteSpace=wrap;html=1;" vertex="1" parent="1">
          <mxGeometry x="840" y="370" width="160" height="80" as="geometry" />
        </mxCell>
        <mxCell id="GUTHpdWSHkX-vr3ncghE-26" style="edgeStyle=orthogonalEdgeStyle;rounded=0;orthogonalLoop=1;jettySize=auto;html=1;exitX=0.5;exitY=1;exitDx=0;exitDy=0;" edge="1" parent="1" source="GUTHpdWSHkX-vr3ncghE-6">
          <mxGeometry relative="1" as="geometry">
            <mxPoint x="920" y="470" as="targetPoint" />
            <Array as="points">
              <mxPoint x="1120" y="470" />
            </Array>
          </mxGeometry>
        </mxCell>
        <mxCell id="GUTHpdWSHkX-vr3ncghE-6" value="&lt;font face=&quot;Lucida Console&quot; style=&quot;font-size: 18px;&quot;&gt;pos = *size;&lt;/font&gt;" style="rounded=0;whiteSpace=wrap;html=1;" vertex="1" parent="1">
          <mxGeometry x="1040" y="370" width="160" height="80" as="geometry" />
        </mxCell>
        <mxCell id="GUTHpdWSHkX-vr3ncghE-18" style="edgeStyle=orthogonalEdgeStyle;rounded=0;orthogonalLoop=1;jettySize=auto;html=1;exitX=0.5;exitY=1;exitDx=0;exitDy=0;entryX=0.5;entryY=0;entryDx=0;entryDy=0;endArrow=none;endFill=0;" edge="1" parent="1" source="GUTHpdWSHkX-vr3ncghE-7" target="GUTHpdWSHkX-vr3ncghE-8">
          <mxGeometry relative="1" as="geometry" />
        </mxCell>
        <mxCell id="GUTHpdWSHkX-vr3ncghE-20" style="edgeStyle=orthogonalEdgeStyle;rounded=0;orthogonalLoop=1;jettySize=auto;html=1;exitX=1;exitY=0.5;exitDx=0;exitDy=0;entryX=0.5;entryY=0;entryDx=0;entryDy=0;" edge="1" parent="1" source="GUTHpdWSHkX-vr3ncghE-7" target="GUTHpdWSHkX-vr3ncghE-9">
          <mxGeometry relative="1" as="geometry">
            <Array as="points">
              <mxPoint x="1020" y="520" />
              <mxPoint x="1020" y="690" />
              <mxPoint x="920" y="690" />
            </Array>
          </mxGeometry>
        </mxCell>
        <mxCell id="GUTHpdWSHkX-vr3ncghE-7" value="&lt;font style=&quot;font-size: 13px;&quot; face=&quot;Lucida Console&quot;&gt;int i = *size - 1;&lt;br&gt;i &amp;gt;= pos; i--&lt;/font&gt;" style="shape=hexagon;perimeter=hexagonPerimeter2;whiteSpace=wrap;html=1;fixedSize=1;" vertex="1" parent="1">
          <mxGeometry x="840" y="480" width="160" height="80" as="geometry" />
        </mxCell>
        <mxCell id="GUTHpdWSHkX-vr3ncghE-19" style="edgeStyle=orthogonalEdgeStyle;rounded=0;orthogonalLoop=1;jettySize=auto;html=1;exitX=0.5;exitY=1;exitDx=0;exitDy=0;entryX=0;entryY=0.5;entryDx=0;entryDy=0;" edge="1" parent="1" source="GUTHpdWSHkX-vr3ncghE-8" target="GUTHpdWSHkX-vr3ncghE-7">
          <mxGeometry relative="1" as="geometry">
            <Array as="points">
              <mxPoint x="920" y="680" />
              <mxPoint x="830" y="680" />
              <mxPoint x="830" y="520" />
            </Array>
          </mxGeometry>
        </mxCell>
        <mxCell id="GUTHpdWSHkX-vr3ncghE-8" value="&lt;font style=&quot;font-size: 16px;&quot; face=&quot;Lucida Console&quot;&gt;(*arr)[i + 1] = (*arr)[i];&lt;/font&gt;" style="rounded=0;whiteSpace=wrap;html=1;" vertex="1" parent="1">
          <mxGeometry x="840" y="590" width="160" height="80" as="geometry" />
        </mxCell>
        <mxCell id="GUTHpdWSHkX-vr3ncghE-21" style="edgeStyle=orthogonalEdgeStyle;rounded=0;orthogonalLoop=1;jettySize=auto;html=1;exitX=0.5;exitY=1;exitDx=0;exitDy=0;entryX=0.5;entryY=0;entryDx=0;entryDy=0;endArrow=none;endFill=0;" edge="1" parent="1" source="GUTHpdWSHkX-vr3ncghE-9" target="GUTHpdWSHkX-vr3ncghE-10">
          <mxGeometry relative="1" as="geometry" />
        </mxCell>
        <mxCell id="GUTHpdWSHkX-vr3ncghE-9" value="&lt;font style=&quot;font-size: 13px;&quot; face=&quot;Lucida Console&quot;&gt;(*arr)[pos] = elem;&lt;/font&gt;" style="rounded=0;whiteSpace=wrap;html=1;" vertex="1" parent="1">
          <mxGeometry x="840" y="700" width="160" height="80" as="geometry" />
        </mxCell>
        <mxCell id="GUTHpdWSHkX-vr3ncghE-22" style="edgeStyle=orthogonalEdgeStyle;rounded=0;orthogonalLoop=1;jettySize=auto;html=1;exitX=0.5;exitY=1;exitDx=0;exitDy=0;entryX=0.5;entryY=0;entryDx=0;entryDy=0;endArrow=none;endFill=0;" edge="1" parent="1" source="GUTHpdWSHkX-vr3ncghE-10" target="GUTHpdWSHkX-vr3ncghE-11">
          <mxGeometry relative="1" as="geometry" />
        </mxCell>
        <mxCell id="GUTHpdWSHkX-vr3ncghE-10" value="&lt;font style=&quot;font-size: 18px;&quot; face=&quot;Lucida Console&quot;&gt;(*size)++;&lt;/font&gt;" style="rounded=0;whiteSpace=wrap;html=1;" vertex="1" parent="1">
          <mxGeometry x="840" y="810" width="160" height="80" as="geometry" />
        </mxCell>
        <mxCell id="GUTHpdWSHkX-vr3ncghE-11" value="&lt;font style=&quot;font-size: 18px;&quot; face=&quot;Lucida Console&quot;&gt;return 0;&lt;/font&gt;" style="rounded=1;whiteSpace=wrap;html=1;arcSize=50;" vertex="1" parent="1">
          <mxGeometry x="840" y="920" width="160" height="80" as="geometry" />
        </mxCell>
        <mxCell id="GUTHpdWSHkX-vr3ncghE-14" value="" style="endArrow=none;html=1;rounded=0;entryX=0.5;entryY=1;entryDx=0;entryDy=0;exitX=0.5;exitY=0;exitDx=0;exitDy=0;" edge="1" parent="1" source="GUTHpdWSHkX-vr3ncghE-4" target="GUTHpdWSHkX-vr3ncghE-2">
          <mxGeometry width="50" height="50" relative="1" as="geometry">
            <mxPoint x="810" y="290" as="sourcePoint" />
            <mxPoint x="860" y="240" as="targetPoint" />
          </mxGeometry>
        </mxCell>
        <mxCell id="GUTHpdWSHkX-vr3ncghE-23" value="&lt;font face=&quot;Lucida Console&quot;&gt;да&lt;/font&gt;" style="text;html=1;align=center;verticalAlign=middle;resizable=0;points=[];autosize=1;strokeColor=none;fillColor=none;" vertex="1" parent="1">
          <mxGeometry x="990" y="168" width="40" height="30" as="geometry" />
        </mxCell>
        <mxCell id="GUTHpdWSHkX-vr3ncghE-24" value="&lt;font face=&quot;Lucida Console&quot;&gt;нет&lt;/font&gt;" style="text;html=1;align=center;verticalAlign=middle;resizable=0;points=[];autosize=1;strokeColor=none;fillColor=none;" vertex="1" parent="1">
          <mxGeometry x="910" y="218" width="50" height="30" as="geometry" />
        </mxCell>
        <mxCell id="GUTHpdWSHkX-vr3ncghE-25" value="&lt;font face=&quot;Lucida Console&quot;&gt;да&lt;/font&gt;" style="text;html=1;align=center;verticalAlign=middle;resizable=0;points=[];autosize=1;strokeColor=none;fillColor=none;" vertex="1" parent="1">
          <mxGeometry x="990" y="388" width="40" height="30" as="geometry" />
        </mxCell>
        <mxCell id="GUTHpdWSHkX-vr3ncghE-27" value="&lt;font face=&quot;Lucida Console&quot;&gt;нет&lt;/font&gt;" style="text;html=1;align=center;verticalAlign=middle;resizable=0;points=[];autosize=1;strokeColor=none;fillColor=none;" vertex="1" parent="1">
          <mxGeometry x="910" y="440" width="50" height="30" as="geometry" />
        </mxCell>
        <mxCell id="GUTHpdWSHkX-vr3ncghE-38" style="edgeStyle=orthogonalEdgeStyle;rounded=0;orthogonalLoop=1;jettySize=auto;html=1;exitX=0.5;exitY=1;exitDx=0;exitDy=0;entryX=0.5;entryY=0;entryDx=0;entryDy=0;endArrow=none;endFill=0;" edge="1" parent="1" source="GUTHpdWSHkX-vr3ncghE-28" target="GUTHpdWSHkX-vr3ncghE-29">
          <mxGeometry relative="1" as="geometry" />
        </mxCell>
        <mxCell id="GUTHpdWSHkX-vr3ncghE-28" value="&lt;font style=&quot;font-size: 15px;&quot; face=&quot;Lucida Console&quot;&gt;Начало int array_print(int *arr, int size)&lt;/font&gt;" style="rounded=1;whiteSpace=wrap;html=1;arcSize=50;" vertex="1" parent="1">
          <mxGeometry x="1240" y="40" width="160" height="80" as="geometry" />
        </mxCell>
        <mxCell id="GUTHpdWSHkX-vr3ncghE-39" style="edgeStyle=orthogonalEdgeStyle;rounded=0;orthogonalLoop=1;jettySize=auto;html=1;exitX=1;exitY=0.5;exitDx=0;exitDy=0;entryX=0;entryY=0.5;entryDx=0;entryDy=0;endArrow=none;endFill=0;" edge="1" parent="1" source="GUTHpdWSHkX-vr3ncghE-29" target="GUTHpdWSHkX-vr3ncghE-30">
          <mxGeometry relative="1" as="geometry" />
        </mxCell>
        <mxCell id="GUTHpdWSHkX-vr3ncghE-40" style="edgeStyle=orthogonalEdgeStyle;rounded=0;orthogonalLoop=1;jettySize=auto;html=1;exitX=0.5;exitY=1;exitDx=0;exitDy=0;entryX=0.5;entryY=0;entryDx=0;entryDy=0;endArrow=none;endFill=0;" edge="1" parent="1" source="GUTHpdWSHkX-vr3ncghE-29" target="GUTHpdWSHkX-vr3ncghE-31">
          <mxGeometry relative="1" as="geometry" />
        </mxCell>
        <mxCell id="GUTHpdWSHkX-vr3ncghE-29" value="&lt;font style=&quot;font-size: 11px;&quot; face=&quot;Lucida Console&quot;&gt;arr == NULL ||&lt;br&gt;size &amp;lt; 0&lt;/font&gt;" style="rhombus;whiteSpace=wrap;html=1;" vertex="1" parent="1">
          <mxGeometry x="1240" y="150" width="160" height="80" as="geometry" />
        </mxCell>
        <mxCell id="GUTHpdWSHkX-vr3ncghE-30" value="&lt;font style=&quot;font-size: 18px;&quot; face=&quot;Lucida Console&quot;&gt;return -1;&lt;/font&gt;" style="rounded=1;whiteSpace=wrap;html=1;arcSize=50;" vertex="1" parent="1">
          <mxGeometry x="1440" y="150" width="160" height="80" as="geometry" />
        </mxCell>
        <mxCell id="GUTHpdWSHkX-vr3ncghE-41" style="edgeStyle=orthogonalEdgeStyle;rounded=0;orthogonalLoop=1;jettySize=auto;html=1;exitX=0.5;exitY=1;exitDx=0;exitDy=0;entryX=0.5;entryY=0;entryDx=0;entryDy=0;endArrow=none;endFill=0;" edge="1" parent="1" source="GUTHpdWSHkX-vr3ncghE-31" target="GUTHpdWSHkX-vr3ncghE-32">
          <mxGeometry relative="1" as="geometry" />
        </mxCell>
        <mxCell id="GUTHpdWSHkX-vr3ncghE-31" value="&lt;font style=&quot;font-size: 18px;&quot; face=&quot;Lucida Console&quot;&gt;printf(&quot;{&quot;);&lt;/font&gt;" style="shape=parallelogram;perimeter=parallelogramPerimeter;whiteSpace=wrap;html=1;fixedSize=1;" vertex="1" parent="1">
          <mxGeometry x="1240" y="260" width="160" height="80" as="geometry" />
        </mxCell>
        <mxCell id="GUTHpdWSHkX-vr3ncghE-42" style="edgeStyle=orthogonalEdgeStyle;rounded=0;orthogonalLoop=1;jettySize=auto;html=1;exitX=0.5;exitY=1;exitDx=0;exitDy=0;entryX=0.5;entryY=0;entryDx=0;entryDy=0;endArrow=none;endFill=0;" edge="1" parent="1" source="GUTHpdWSHkX-vr3ncghE-32" target="GUTHpdWSHkX-vr3ncghE-33">
          <mxGeometry relative="1" as="geometry" />
        </mxCell>
        <mxCell id="GUTHpdWSHkX-vr3ncghE-47" style="edgeStyle=orthogonalEdgeStyle;rounded=0;orthogonalLoop=1;jettySize=auto;html=1;exitX=1;exitY=0.5;exitDx=0;exitDy=0;entryX=0.5;entryY=0;entryDx=0;entryDy=0;" edge="1" parent="1" source="GUTHpdWSHkX-vr3ncghE-32" target="GUTHpdWSHkX-vr3ncghE-36">
          <mxGeometry relative="1" as="geometry">
            <Array as="points">
              <mxPoint x="1410" y="410" />
              <mxPoint x="1410" y="800" />
              <mxPoint x="1320" y="800" />
            </Array>
          </mxGeometry>
        </mxCell>
        <mxCell id="GUTHpdWSHkX-vr3ncghE-32" value="&lt;font style=&quot;font-size: 15px;&quot; face=&quot;Lucida Console&quot;&gt;int i = 0; i &amp;lt; size; i++&lt;/font&gt;" style="shape=hexagon;perimeter=hexagonPerimeter2;whiteSpace=wrap;html=1;fixedSize=1;" vertex="1" parent="1">
          <mxGeometry x="1240" y="370" width="160" height="80" as="geometry" />
        </mxCell>
        <mxCell id="GUTHpdWSHkX-vr3ncghE-43" style="edgeStyle=orthogonalEdgeStyle;rounded=0;orthogonalLoop=1;jettySize=auto;html=1;exitX=0.5;exitY=1;exitDx=0;exitDy=0;entryX=0.5;entryY=0;entryDx=0;entryDy=0;endArrow=none;endFill=0;" edge="1" parent="1" source="GUTHpdWSHkX-vr3ncghE-33" target="GUTHpdWSHkX-vr3ncghE-34">
          <mxGeometry relative="1" as="geometry" />
        </mxCell>
        <mxCell id="GUTHpdWSHkX-vr3ncghE-33" value="&lt;font style=&quot;font-size: 18px;&quot; face=&quot;Lucida Console&quot;&gt;printf(&quot;%d&quot;, &lt;br&gt;arr[i]);&lt;/font&gt;" style="shape=parallelogram;perimeter=parallelogramPerimeter;whiteSpace=wrap;html=1;fixedSize=1;" vertex="1" parent="1">
          <mxGeometry x="1240" y="480" width="160" height="80" as="geometry" />
        </mxCell>
        <mxCell id="GUTHpdWSHkX-vr3ncghE-44" style="edgeStyle=orthogonalEdgeStyle;rounded=0;orthogonalLoop=1;jettySize=auto;html=1;exitX=0.5;exitY=1;exitDx=0;exitDy=0;entryX=0.5;entryY=0;entryDx=0;entryDy=0;endArrow=none;endFill=0;" edge="1" parent="1" source="GUTHpdWSHkX-vr3ncghE-34" target="GUTHpdWSHkX-vr3ncghE-35">
          <mxGeometry relative="1" as="geometry" />
        </mxCell>
        <mxCell id="GUTHpdWSHkX-vr3ncghE-46" style="edgeStyle=orthogonalEdgeStyle;rounded=0;orthogonalLoop=1;jettySize=auto;html=1;exitX=0;exitY=0.5;exitDx=0;exitDy=0;" edge="1" parent="1" source="GUTHpdWSHkX-vr3ncghE-34">
          <mxGeometry relative="1" as="geometry">
            <mxPoint x="1229.9999999999998" y="629.6666666666667" as="targetPoint" />
          </mxGeometry>
        </mxCell>
        <mxCell id="GUTHpdWSHkX-vr3ncghE-34" value="&lt;font style=&quot;font-size: 14px;&quot; face=&quot;Lucida Console&quot;&gt;i != size - 1&lt;/font&gt;" style="rhombus;whiteSpace=wrap;html=1;" vertex="1" parent="1">
          <mxGeometry x="1240" y="590" width="160" height="80" as="geometry" />
        </mxCell>
        <mxCell id="GUTHpdWSHkX-vr3ncghE-45" style="edgeStyle=orthogonalEdgeStyle;rounded=0;orthogonalLoop=1;jettySize=auto;html=1;exitX=0.5;exitY=1;exitDx=0;exitDy=0;entryX=0;entryY=0.5;entryDx=0;entryDy=0;" edge="1" parent="1" source="GUTHpdWSHkX-vr3ncghE-35" target="GUTHpdWSHkX-vr3ncghE-32">
          <mxGeometry relative="1" as="geometry">
            <Array as="points">
              <mxPoint x="1320" y="790" />
              <mxPoint x="1230" y="790" />
              <mxPoint x="1230" y="410" />
            </Array>
          </mxGeometry>
        </mxCell>
        <mxCell id="GUTHpdWSHkX-vr3ncghE-35" value="&lt;font style=&quot;font-size: 16px;&quot; face=&quot;Lucida Console&quot;&gt;printf(&quot;, &quot;);&lt;/font&gt;" style="shape=parallelogram;perimeter=parallelogramPerimeter;whiteSpace=wrap;html=1;fixedSize=1;" vertex="1" parent="1">
          <mxGeometry x="1240" y="700" width="160" height="80" as="geometry" />
        </mxCell>
        <mxCell id="GUTHpdWSHkX-vr3ncghE-48" style="edgeStyle=orthogonalEdgeStyle;rounded=0;orthogonalLoop=1;jettySize=auto;html=1;exitX=0.5;exitY=1;exitDx=0;exitDy=0;entryX=0.5;entryY=0;entryDx=0;entryDy=0;endArrow=none;endFill=0;" edge="1" parent="1" source="GUTHpdWSHkX-vr3ncghE-36" target="GUTHpdWSHkX-vr3ncghE-37">
          <mxGeometry relative="1" as="geometry" />
        </mxCell>
        <mxCell id="GUTHpdWSHkX-vr3ncghE-36" value="&lt;font style=&quot;font-size: 15px;&quot; face=&quot;Lucida Console&quot;&gt;printf(&quot;}\n&quot;);&lt;/font&gt;" style="shape=parallelogram;perimeter=parallelogramPerimeter;whiteSpace=wrap;html=1;fixedSize=1;" vertex="1" parent="1">
          <mxGeometry x="1240" y="810" width="160" height="80" as="geometry" />
        </mxCell>
        <mxCell id="GUTHpdWSHkX-vr3ncghE-37" value="&lt;font style=&quot;font-size: 18px;&quot; face=&quot;Lucida Console&quot;&gt;return 0;&lt;/font&gt;" style="rounded=1;whiteSpace=wrap;html=1;arcSize=50;" vertex="1" parent="1">
          <mxGeometry x="1240" y="920" width="160" height="80" as="geometry" />
        </mxCell>
        <mxCell id="GUTHpdWSHkX-vr3ncghE-49" value="&lt;font face=&quot;Lucida Console&quot;&gt;да&lt;/font&gt;" style="text;html=1;align=center;verticalAlign=middle;resizable=0;points=[];autosize=1;strokeColor=none;fillColor=none;" vertex="1" parent="1">
          <mxGeometry x="1390" y="168" width="40" height="30" as="geometry" />
        </mxCell>
        <mxCell id="GUTHpdWSHkX-vr3ncghE-50" value="&lt;font face=&quot;Lucida Console&quot;&gt;нет&lt;/font&gt;" style="text;html=1;align=center;verticalAlign=middle;resizable=0;points=[];autosize=1;strokeColor=none;fillColor=none;" vertex="1" parent="1">
          <mxGeometry x="1310" y="218" width="50" height="30" as="geometry" />
        </mxCell>
        <mxCell id="GUTHpdWSHkX-vr3ncghE-51" value="&lt;font face=&quot;Lucida Console&quot;&gt;нет&lt;/font&gt;" style="text;html=1;align=center;verticalAlign=middle;resizable=0;points=[];autosize=1;strokeColor=none;fillColor=none;" vertex="1" parent="1">
          <mxGeometry x="1216" y="600" width="50" height="30" as="geometry" />
        </mxCell>
        <mxCell id="GUTHpdWSHkX-vr3ncghE-52" value="&lt;font face=&quot;Lucida Console&quot;&gt;да&lt;/font&gt;" style="text;html=1;align=center;verticalAlign=middle;resizable=0;points=[];autosize=1;strokeColor=none;fillColor=none;" vertex="1" parent="1">
          <mxGeometry x="1310" y="658" width="40" height="30" as="geometry" />
        </mxCell>
      </root>
    </mxGraphModel>
  </diagram>
</mxfile>
